# xmcd
#
# Track frame offsets:
#	150
#	24122
#	54262
#	87977
#	131841
#	194801
#	246613
#
# Disc length: 4036 seconds
#
# Revision: 1
# Processed by: cddbd v1.5.2PL0 Copyright (c) Steve Scherf et al.
# Submitted via: audiograbber 1.83.01
#
DISCID=600fc207
DTITLE=Grateful Dead - 79-04-22 Spartan Stadium, San Jose CA
DYEAR=1900
DGENRE=
TTITLE0=I Need A Miracle
TTITLE1=Bertha
TTITLE2=Good Lovin'
TTITLE3=Scarlet Begonias
TTITLE4=Fire On The Mountain
TTITLE5=Estimated Prophet
TTITLE6=He's Gone > Jam
EXTD=
EXTT0=
EXTT1=
EXTT2=
EXTT3=
EXTT4=
EXTT5=
EXTT6=
PLAYORDER=
